<?xml version="1.0" encoding="UTF-8" standalone="no"?><!DOCTYPE svg PUBLIC "-//W3C//DTD SVG 1.1//EN" "http://www.w3.org/Graphics/SVG/1.1/DTD/svg11.dtd"><svg width="100%" height="100%" viewBox="0 0 512 512" version="1.1" xmlns="http://www.w3.org/2000/svg" xmlns:xlink="http://www.w3.org/1999/xlink" xml:space="preserve" xmlns:serif="http://www.serif.com/" style="fill-rule:evenodd;clip-rule:evenodd;stroke-linejoin:round;stroke-miterlimit:2;"><path d="M462,0C489.614,0 512,22.386 512,50L512,462C512,489.614 489.614,512 462,512L50,512C22.386,512 0,489.614 0,462L0,50C0,22.386 22.386,0 50,0L462,0Z" style="fill:rgb(5,172,193);"/><g transform="matrix(50.6478,0,0,50.6478,-1451.77,-14962.1)"><path d="M33.995,305.053C36.059,305.053 37.175,303.817 37.175,302.305C37.175,301.405 36.731,300.601 35.555,300.061C34.667,299.653 33.203,299.305 32.507,298.921C32.051,298.669 31.799,298.273 31.799,297.793C31.799,297.481 31.955,296.317 33.455,296.317C35.207,296.317 36.275,297.913 36.395,298.117C36.443,298.189 36.479,298.201 36.515,298.201C36.551,298.201 36.587,298.189 36.623,298.177C36.671,298.153 36.695,298.141 36.707,298.117C36.743,298.093 36.731,298.045 36.719,298.009L36.707,297.973L36.131,296.029C36.107,295.945 36.059,295.945 35.999,295.993C35.795,296.209 35.615,296.305 35.411,296.305C35.315,296.305 35.207,296.281 35.075,296.233C34.499,296.029 34.031,295.885 33.479,295.885C31.151,295.885 30.575,297.613 30.575,298.549C30.575,299.473 31.007,300.241 31.919,300.709C32.699,301.105 33.623,301.309 34.547,301.693C35.243,301.981 35.567,302.425 35.567,303.025C35.567,304.021 34.859,304.537 33.863,304.537C32.267,304.537 31.235,303.409 30.599,302.509C30.539,302.437 30.503,302.413 30.467,302.413C30.443,302.413 30.419,302.413 30.395,302.425C30.299,302.473 30.263,302.485 30.263,302.533C30.263,302.557 30.275,302.605 30.287,302.653L30.803,304.861C30.815,304.933 30.875,304.957 30.935,304.897C31.211,304.645 31.415,304.501 31.643,304.501C31.727,304.501 31.835,304.525 31.943,304.573C32.591,304.837 33.323,305.053 33.995,305.053Z" style="fill:rgb(253,252,251);fill-rule:nonzero;"/></g></svg>